<svg xmlns="http://www.w3.org/2000/svg" xmlns:xlink="http://www.w3.org/1999/xlink" width="2028.101" height="1402.16" viewBox="0 0 2028.101 1402.16">
  <defs>
    <clipPath id="clip-path">
      <rect x="96" y="-89" width="2028.101" height="1402.16" fill="none"/>
    </clipPath>
    <clipPath id="clip-path-2">
      <rect id="Rectangle_52" data-name="Rectangle 52" width="1795.71" height="1166.16" transform="translate(-211.92 3876.28)" fill="none"/>
    </clipPath>
  </defs>
  <g id="background-showroom" transform="translate(-96 89)" clip-path="url(#clip-path)" style="isolation: isolate">
    <g id="background-showroom-2" data-name="background-showroom" transform="translate(203.92 -32)">
      <g id="Group_94" data-name="Group 94" transform="translate(-148 -91.63)">
        <g id="Group_65" data-name="Group 65" transform="translate(72 -3761.44)" clip-path="url(#clip-path-2)">
          <path id="Path_77" data-name="Path 77" d="M806.459,3876.276l16.447,9.5L563.864,4036.311l-16.447-9.5Z" fill="#dcdcdc"/>
          <path id="Path_78" data-name="Path 78" d="M914.488,3938.646l16.447,9.5L671.892,4098.681l-16.446-9.5Z" fill="#dcdcdc"/>
          <path id="Path_79" data-name="Path 79" d="M1022.517,4001.017l16.447,9.5L779.922,4161.051l-16.447-9.5Z" fill="#dcdcdc"/>
          <path id="Path_80" data-name="Path 80" d="M1130.545,4063.387l16.447,9.5L887.95,4223.421l-16.447-9.5Z" fill="#dcdcdc"/>
          <path id="Path_81" data-name="Path 81" d="M517.552,3909.272-25.9,4225.094l-16.447-9.495,543.457-315.822Z" fill="#dcdcdc"/>
          <path id="Path_82" data-name="Path 82" d="M1055.968,4320.427l-16.34,9.5-8.223-4.747L871.61,4232.917l-16.447-9.5-91.582-52.874-16.446-9.5-91.582-52.875-16.447-9.5-91.582-52.875-16.447-9.495L439.5,3983.436l-8.223-4.748,16.34-9.5,8.223,4.748,91.581,52.874,16.447,9.5,91.582,52.874,16.447,9.5,91.581,52.875,16.447,9.5,91.582,52.875,16.446,9.495,159.8,92.258Z" fill="#dcdcdc"/>
          <path id="Path_83" data-name="Path 83" d="M31.192,4326.813l499.885-290.5,16.447,9.495-499.885,290.5Z" fill="#dcdcdc"/>
          <path id="Path_84" data-name="Path 84" d="M-4.338,4472.609,639.106,4098.68l16.447,9.5L12.109,4482.105Z" fill="#dcdcdc"/>
          <path id="Path_85" data-name="Path 85" d="M684.8,4539.194l-16.34,9.5-10.873-6.277-159.795-92.258-11.6-6.7,16.34-9.5,11.6,6.7,159.795,92.258Z" fill="#dcdcdc"/>
          <path id="Path_86" data-name="Path 86" d="M21.622,4582.672l725.512-421.621,16.447,9.5L38.069,4592.168Z" fill="#dcdcdc"/>
          <path id="Path_87" data-name="Path 87" d="M129.651,4645.043l725.512-421.622,16.447,9.5L514.134,4440.659l-11.6-6.7-16.34,9.5,11.6,6.7L146.1,4654.538Z" fill="#dcdcdc"/>
          <path id="Path_88" data-name="Path 88" d="M-211.92,4718.393l217.2-126.225,16.446,9.5-217.2,126.224Z" fill="#dcdcdc"/>
          <path id="Path_89" data-name="Path 89" d="M1306.787,4165.14l16.447,9.5L322.34,4756.292l-16.447-9.5,351.7-204.384,10.873,6.278,16.34-9.5-10.873-6.278,357.475-207.742,8.223,4.748,16.34-9.5-8.223-4.748Z" fill="#dcdcdc"/>
          <path id="Path_90" data-name="Path 90" d="M-103.892,4780.763l217.2-126.225,16.446,9.5-217.2,126.224Z" fill="#dcdcdc"/>
          <path id="Path_91" data-name="Path 91" d="M72.351,4882.516l217.2-126.224,16.446,9.5L88.8,4892.012Z" fill="#dcdcdc"/>
          <path id="Path_92" data-name="Path 92" d="M542.414,3923.627l-86.578,50.313-8.223-4.748-16.34,9.5,8.223,4.748L40.784,4215.142C15.779,4229.673.71,4248.963-1.657,4269.459L-29.2,4508.3c-3.094,26.829,14.026,53.122,46.965,72.139l3.862,2.23,16.447,9.5,91.582,52.875,16.447,9.5L305.893,4746.8l16.447,9.5,244.111,140.937,12.712,7.339-16.34,9.5-12.712-7.339L306,4765.787l-16.447-9.5-159.8-92.258-16.447-9.5-91.582-52.874-16.446-9.5-3.863-2.231c-37.708-21.77-57.3-51.864-53.756-82.57l27.547-238.845c2.737-23.728,20.182-46.055,49.126-62.876l501.63-291.515Z" fill="#dcdcdc"/>
          <path id="Path_93" data-name="Path 93" d="M1583.792,4325.068,349.355,5042.444l-16.447-9.5,217.2-126.225,12.711,7.34,16.341-9.5-12.712-7.339,1000.893-581.656Z" fill="#dcdcdc"/>
        </g>
        <g id="Group_92" data-name="Group 92" transform="translate(-645.579 55.35)">
          <path id="Path_94" data-name="Path 94" d="M467.01,4422.362l-8.822-5.127c-3.826-2.224-6.473-6.478-7.349-12.427l8.822,5.127c.875,5.948,3.523,10.2,7.349,12.427" transform="translate(703 -3807)" fill="#d8940e"/>
          <path id="Path_95" data-name="Path 95" d="M467.01,4422.362l-8.822-5.127c-3.826-2.224-6.473-6.478-7.349-12.427l8.822,5.127c.875,5.948,3.523,10.2,7.349,12.427" transform="translate(703 -3807)" fill="#d8940e"/>
          <path id="Path_96" data-name="Path 96" d="M495.417,4353.176l8.821,5.127c-4.778-2.776-11.4-2.386-18.7,1.832l-8.822-5.127c7.3-4.217,13.922-4.608,18.7-1.832" transform="translate(703 -3807)" fill="#d8940e"/>
          <path id="Path_97" data-name="Path 97" d="M485.538,4360.135l-8.822-5.127a32.129,32.129,0,0,1,3.68-1.831l8.823,5.127a31.974,31.974,0,0,0-3.681,1.831" transform="translate(703 -3807)" fill="#d8940e"/>
          <path id="Path_98" data-name="Path 98" d="M489.218,4358.3l-8.822-5.127a25.4,25.4,0,0,1,3.094-1.066l8.822,5.126a25.41,25.41,0,0,0-3.094,1.067" transform="translate(703 -3807)" fill="#d8940e"/>
          <path id="Path_99" data-name="Path 99" d="M492.312,4357.236l-8.822-5.126a20.794,20.794,0,0,1,2.313-.494l8.822,5.126a21.243,21.243,0,0,0-2.313.494" transform="translate(703 -3807)" fill="#d8940e"/>
          <path id="Path_100" data-name="Path 100" d="M494.625,4356.742l-8.822-5.126a18.037,18.037,0,0,1,1.96-.2l8.821,5.126a18.293,18.293,0,0,0-1.959.2" transform="translate(703 -3807)" fill="#d8940e"/>
          <path id="Path_101" data-name="Path 101" d="M496.584,4356.546l-8.822-5.126a15.964,15.964,0,0,1,1.739.014l8.822,5.127a16.21,16.21,0,0,0-1.739-.015" transform="translate(703 -3807)" fill="#d8940e"/>
          <path id="Path_102" data-name="Path 102" d="M498.324,4356.56l-8.822-5.127a14.681,14.681,0,0,1,1.588.187l8.822,5.126a14.56,14.56,0,0,0-1.588-.186" transform="translate(703 -3807)" fill="#d8940e"/>
          <path id="Path_103" data-name="Path 103" d="M499.912,4356.746l-8.822-5.127a13.753,13.753,0,0,1,1.475.34l8.823,5.127a13.594,13.594,0,0,0-1.476-.34" transform="translate(703 -3807)" fill="#d8940e"/>
          <path id="Path_104" data-name="Path 104" d="M501.387,4357.086l-8.822-5.127a13.3,13.3,0,0,1,1.388.49l8.822,5.126a13.289,13.289,0,0,0-1.388-.489" transform="translate(703 -3807)" fill="#d8940e"/>
          <path id="Path_105" data-name="Path 105" d="M502.775,4357.575l-8.822-5.126a12.159,12.159,0,0,1,1.32.645l8.822,5.127a12.345,12.345,0,0,0-1.32-.646" transform="translate(703 -3807)" fill="#d8940e"/>
          <path id="Path_106" data-name="Path 106" d="M504.1,4358.221l-8.822-5.127.144.082,8.822,5.127-.144-.082" transform="translate(703 -3807)" fill="#d8940e"/>
          <path id="Path_107" data-name="Path 107" d="M459.634,4400.727l-8.822-5.126c1.89-15.606,12.752-33,25.9-40.594l8.822,5.128c-13.152,7.592-24.013,24.987-25.9,40.592" transform="translate(703 -3807)" fill="#d8940e"/>
          <path id="Path_108" data-name="Path 108" d="M459.634,4400.727l-8.822-5.126c.013-.11.028-.221.042-.33l8.822,5.126c-.015.11-.028.222-.042.33" transform="translate(703 -3807)" fill="#d8940e"/>
          <path id="Path_109" data-name="Path 109" d="M459.676,4400.4l-8.822-5.127q.235-1.832.633-3.688l8.821,5.127q-.393,1.854-.632,3.688" transform="translate(703 -3807)" fill="#d8940e"/>
          <path id="Path_110" data-name="Path 110" d="M460.308,4396.709l-8.822-5.127q.322-1.515.746-3.035l8.822,5.126q-.423,1.521-.746,3.036" transform="translate(703 -3807)" fill="#d8940e"/>
          <path id="Path_111" data-name="Path 111" d="M461.054,4393.673l-8.822-5.126q.371-1.333.815-2.665l8.821,5.127q-.443,1.331-.814,2.664" transform="translate(703 -3807)" fill="#d8940e"/>
          <path id="Path_112" data-name="Path 112" d="M461.869,4391.009l-8.822-5.127q.414-1.239.888-2.474l8.823,5.127q-.475,1.233-.889,2.474" transform="translate(703 -3807)" fill="#d8940e"/>
          <path id="Path_113" data-name="Path 113" d="M462.757,4388.535l-8.822-5.127q.455-1.182.963-2.354l8.822,5.127q-.508,1.17-.963,2.354" transform="translate(703 -3807)" fill="#d8940e"/>
          <path id="Path_114" data-name="Path 114" d="M463.72,4386.181l-8.822-5.127q.5-1.146,1.043-2.277l8.821,5.127q-.545,1.132-1.042,2.277" transform="translate(703 -3807)" fill="#d8940e"/>
          <path id="Path_115" data-name="Path 115" d="M464.763,4383.9l-8.822-5.127q.543-1.126,1.132-2.233l8.822,5.127q-.588,1.106-1.132,2.233" transform="translate(703 -3807)" fill="#d8940e"/>
          <path id="Path_116" data-name="Path 116" d="M465.895,4381.67l-8.823-5.127q.6-1.119,1.234-2.214l8.822,5.126q-.639,1.1-1.233,2.215" transform="translate(703 -3807)" fill="#d8940e"/>
          <path id="Path_117" data-name="Path 117" d="M467.128,4379.455l-8.822-5.126q.658-1.129,1.361-2.228l8.822,5.126q-.7,1.1-1.361,2.228" transform="translate(703 -3807)" fill="#d8940e"/>
          <path id="Path_118" data-name="Path 118" d="M468.49,4377.227l-8.822-5.127q.74-1.156,1.526-2.277l8.821,5.127q-.786,1.12-1.525,2.277" transform="translate(703 -3807)" fill="#d8940e"/>
          <path id="Path_119" data-name="Path 119" d="M470.015,4374.95l-8.822-5.127q.854-1.215,1.758-2.382l8.822,5.127q-.9,1.166-1.758,2.382" transform="translate(703 -3807)" fill="#d8940e"/>
          <path id="Path_120" data-name="Path 120" d="M471.773,4372.568l-8.822-5.127q1.029-1.326,2.118-2.578l8.822,5.127q-1.089,1.251-2.118,2.578" transform="translate(703 -3807)" fill="#d8940e"/>
          <path id="Path_121" data-name="Path 121" d="M473.891,4369.99l-8.822-5.127q1.389-1.6,2.869-3.057l8.822,5.127q-1.478,1.456-2.869,3.057" transform="translate(703 -3807)" fill="#d8940e"/>
          <path id="Path_122" data-name="Path 122" d="M476.76,4366.933l-8.822-5.126a43.893,43.893,0,0,1,8.778-6.8l8.822,5.127a43.915,43.915,0,0,0-8.778,6.8" transform="translate(703 -3807)" fill="#d8940e"/>
          <path id="Path_123" data-name="Path 123" d="M427.276,4419.41l-8.822-5.127,32.359-18.682,8.821,5.126Z" transform="translate(703 -3807)" fill="#d8940e"/>
          <path id="Path_124" data-name="Path 124" d="M423.267,4421.725l-8.822-5.127,4.009-2.314,8.822,5.127Z" transform="translate(703 -3807)" fill="#d8940e"/>
          <path id="Path_125" data-name="Path 125" d="M419.263,4424.036l-8.822-5.127,4-2.311,8.822,5.126Z" transform="translate(703 -3807)" fill="#d8940e"/>
          <path id="Path_126" data-name="Path 126" d="M419.362,4458.837l-8.822-5.127-.1-34.8,8.821,5.127Z" transform="translate(703 -3807)" fill="#d8940e"/>
          <path id="Path_127" data-name="Path 127" d="M418.671,4396.466l8.822,5.127c-1.094-.636-2.61-.547-4.282.419l-8.822-5.127c1.672-.965,3.188-1.055,4.282-.419" transform="translate(703 -3807)" fill="#d8940e"/>
          <path id="Path_128" data-name="Path 128" d="M423.211,4402.012l-8.822-5.127a7.279,7.279,0,0,1,.843-.419l8.821,5.127a7.278,7.278,0,0,0-.842.419" transform="translate(703 -3807)" fill="#d8940e"/>
          <path id="Path_129" data-name="Path 129" d="M424.053,4401.593l-8.822-5.127a5.642,5.642,0,0,1,.709-.244l8.821,5.127a5.685,5.685,0,0,0-.708.244" transform="translate(703 -3807)" fill="#d8940e"/>
          <path id="Path_130" data-name="Path 130" d="M424.762,4401.349l-8.822-5.127a4.565,4.565,0,0,1,.53-.113l8.822,5.127a4.624,4.624,0,0,0-.53.113" transform="translate(703 -3807)" fill="#d8940e"/>
          <path id="Path_131" data-name="Path 131" d="M425.292,4401.235l-8.823-5.127a4.409,4.409,0,0,1,.448-.045l8.823,5.127a4.325,4.325,0,0,0-.448.045" transform="translate(703 -3807)" fill="#d8940e"/>
          <path id="Path_132" data-name="Path 132" d="M425.74,4401.19l-8.822-5.127a3.854,3.854,0,0,1,.4,0l8.822,5.127a3.854,3.854,0,0,0-.4,0" transform="translate(703 -3807)" fill="#d8940e"/>
          <path id="Path_133" data-name="Path 133" d="M426.138,4401.193l-8.822-5.127a3.665,3.665,0,0,1,.364.043l8.822,5.127a3.367,3.367,0,0,0-.364-.043" transform="translate(703 -3807)" fill="#d8940e"/>
          <path id="Path_134" data-name="Path 134" d="M426.5,4401.236l-8.822-5.127a3.084,3.084,0,0,1,.338.078l8.822,5.126a3.394,3.394,0,0,0-.338-.077" transform="translate(703 -3807)" fill="#d8940e"/>
          <path id="Path_135" data-name="Path 135" d="M426.84,4401.313l-8.822-5.126a2.8,2.8,0,0,1,.318.111l8.822,5.127a3.125,3.125,0,0,0-.318-.112" transform="translate(703 -3807)" fill="#d8940e"/>
          <path id="Path_136" data-name="Path 136" d="M427.158,4401.426l-8.822-5.127a2.966,2.966,0,0,1,.3.148l8.822,5.126a3.178,3.178,0,0,0-.3-.147" transform="translate(703 -3807)" fill="#d8940e"/>
          <path id="Path_137" data-name="Path 137" d="M427.46,4401.573l-8.822-5.126.033.019,8.822,5.127-.033-.02" transform="translate(703 -3807)" fill="#d8940e"/>
          <path id="Path_138" data-name="Path 138" d="M418.971,4416.261l-8.822-5.127c-1.08-.628-1.75-1.963-1.756-3.861a13.218,13.218,0,0,1,6-10.388l8.822,5.127a13.21,13.21,0,0,0-5.995,10.388c.005,1.9.674,3.233,1.755,3.861" transform="translate(703 -3807)" fill="#d8940e"/>
          <path id="Path_139" data-name="Path 139" d="M418.971,4416.261l-8.822-5.127c-1.08-.628-1.75-1.963-1.756-3.861a8.95,8.95,0,0,1,.078-1.179l8.821,5.127a8.933,8.933,0,0,0-.076,1.179c.005,1.9.674,3.233,1.755,3.861" transform="translate(703 -3807)" fill="#d8940e"/>
          <path id="Path_140" data-name="Path 140" d="M417.292,4411.221l-8.822-5.127q.054-.415.144-.835l8.822,5.127c-.06.279-.108.559-.144.835" transform="translate(703 -3807)" fill="#d8940e"/>
          <path id="Path_141" data-name="Path 141" d="M417.436,4410.386l-8.822-5.127c.049-.229.106-.46.169-.69l8.822,5.127c-.064.23-.12.461-.169.69" transform="translate(703 -3807)" fill="#d8940e"/>
          <path id="Path_142" data-name="Path 142" d="M417.605,4409.695l-8.822-5.127c.057-.205.119-.409.187-.613l8.822,5.126c-.068.205-.13.409-.187.614" transform="translate(703 -3807)" fill="#d8940e"/>
          <path id="Path_143" data-name="Path 143" d="M417.792,4409.081l-8.822-5.126c.063-.19.132-.38.2-.568l8.822,5.127c-.073.188-.141.378-.2.567" transform="translate(703 -3807)" fill="#d8940e"/>
          <path id="Path_144" data-name="Path 144" d="M418,4408.514l-8.822-5.127c.07-.181.143-.36.22-.54l8.823,5.127q-.117.268-.221.54" transform="translate(703 -3807)" fill="#d8940e"/>
          <path id="Path_145" data-name="Path 145" d="M418.217,4407.974l-8.822-5.127c.076-.175.155-.349.239-.521l8.822,5.126c-.084.172-.163.347-.239.522" transform="translate(703 -3807)" fill="#d8940e"/>
          <path id="Path_146" data-name="Path 146" d="M418.456,4407.451l-8.822-5.126c.083-.172.17-.343.259-.512l8.822,5.127c-.09.169-.176.339-.259.511" transform="translate(703 -3807)" fill="#d8940e"/>
          <path id="Path_147" data-name="Path 147" d="M418.715,4406.94l-8.822-5.127q.137-.256.282-.507l8.822,5.127q-.146.25-.282.507" transform="translate(703 -3807)" fill="#d8940e"/>
          <path id="Path_148" data-name="Path 148" d="M419,4406.433l-8.822-5.126c.1-.172.2-.343.311-.51l8.822,5.128q-.161.25-.311.508" transform="translate(703 -3807)" fill="#d8940e"/>
          <path id="Path_149" data-name="Path 149" d="M419.309,4405.925l-8.822-5.127c.113-.176.229-.35.348-.519l8.822,5.126c-.119.17-.236.344-.348.52" transform="translate(703 -3807)" fill="#d8940e"/>
          <path id="Path_150" data-name="Path 150" d="M419.657,4405.4l-8.822-5.127q.2-.278.4-.543l8.822,5.127c-.137.177-.271.357-.4.543" transform="translate(703 -3807)" fill="#d8940e"/>
          <path id="Path_151" data-name="Path 151" d="M420.057,4404.862l-8.822-5.127q.237-.306.488-.595l8.822,5.127q-.251.289-.488.595" transform="translate(703 -3807)" fill="#d8940e"/>
          <path id="Path_152" data-name="Path 152" d="M420.545,4404.267l-8.822-5.126q.318-.366.657-.7l8.822,5.126c-.226.222-.445.457-.657.7" transform="translate(703 -3807)" fill="#d8940e"/>
          <path id="Path_153" data-name="Path 153" d="M421.2,4403.568l-8.822-5.127a10.081,10.081,0,0,1,2.01-1.557l8.821,5.127a10.1,10.1,0,0,0-2.009,1.557" transform="translate(703 -3807)" fill="#d8940e"/>
          <path id="Path_154" data-name="Path 154" d="M485.538,4360.135c14.515-8.381,26.32-1.653,26.367,15.026s-11.68,36.991-26.2,45.37c-13.151,7.594-24.078,2.782-26.048-10.595L427.3,4428.617l.072,25.594-8.013,4.626-.1-34.8,4-2.311,4.009-2.315,32.359-18.682c1.89-15.606,12.751-33,25.9-40.593" transform="translate(703 -3807)" fill="#ffc20e"/>
          <path id="Path_155" data-name="Path 155" d="M423.211,4402.012c3.322-1.918,6.027-.38,6.038,3.44a13.223,13.223,0,0,1-6,10.39c-3.322,1.917-6.023.378-6.034-3.442a13.213,13.213,0,0,1,5.995-10.388" transform="translate(703 -3807)" fill="#ffc20e"/>
        </g>
      </g>
      <g id="Group_91" data-name="Group 91" transform="translate(2345.172 -2567.049)">
        <path id="Path_167" data-name="Path 167" d="M1711.124,4861.595a57.217,57.217,0,1,1-57.219,57.217,57.216,57.216,0,0,1,57.219-57.217" transform="translate(-2313.007 -1305.021)" fill="#f1f2f2"/>
        <path id="Path_168" data-name="Path 168" d="M1806.919,4302.438c0,125.056-91.861,228.657-211.785,247.008v383.906H1307.127v-76.2h211.8v-307.7c-119.935-18.346-211.8-121.948-211.8-247.011,0-138.011,111.881-249.9,249.9-249.9s249.9,111.885,249.9,249.9" transform="translate(-2302.909 -1281.461)" fill="#f1f2f2"/>
      </g>
    </g>
    <g id="Group_95" data-name="Group 95" transform="translate(55.92 -123.63)">
      <text id="HOÀNG_THẾ_THIỆN" data-name="HOÀNG THẾ THIỆN" transform="matrix(0.865, -0.502, 0.502, 0.865, 779.783, 767.07)" fill="#232323" font-size="21" font-family="SVN-GothamLight, SVN-Gotham" font-weight="300"><tspan x="0" y="0">HOÀNG THẾ THIỆN</tspan></text>
      <text id="MAI_CHÍ_THỌ" data-name="MAI CHÍ THỌ" transform="matrix(0.865, -0.502, 0.502, 0.865, 777.163, 1070.228)" fill="#232323" font-size="21" font-family="SVN-GothamLight, SVN-Gotham" font-weight="300"><tspan x="0" y="0">MAI CHÍ THỌ</tspan></text>
      <text id="ĐƯỜNG_B2" data-name="ĐƯỜNG B2" transform="matrix(0.865, -0.502, 0.502, 0.865, 777.159, 566.528)" fill="#232323" font-size="21" font-family="SVN-GothamLight, SVN-Gotham" font-weight="300"><tspan x="0" y="0">ĐƯỜNG B2</tspan></text>
      <text id="ĐƯỜNG_SỐ_7" data-name="ĐƯỜNG SỐ 7" transform="matrix(0.866, 0.5, -0.5, 0.866, 333.09, 985.135)" fill="#232323" font-size="21" font-family="SVN-GothamLight, SVN-Gotham" font-weight="300"><tspan x="0" y="0">ĐƯỜNG SỐ 7</tspan></text>
    </g>
  </g>
</svg>
