<svg xmlns="http://www.w3.org/2000/svg" width="35" height="35" viewBox="0 0 35 35">
  <g id="ico-social-fb" transform="translate(-1175 -1697.897)">
    <path id="Path_60" data-name="Path 60" d="M185,6433.4a17.5,17.5,0,1,1-17.5-17.5,17.5,17.5,0,0,1,17.5,17.5" transform="translate(1025 -4718)" fill="#494949"/>
    <path id="Path_61" data-name="Path 61" d="M169.751,6426.9c.636-.021,1.272,0,1.91-.006h.263v-3.31c-.34-.035-.7-.084-1.052-.1-.652-.029-1.306-.062-1.96-.047a4.809,4.809,0,0,0-2.766.856,4.135,4.135,0,0,0-1.663,2.763,9.652,9.652,0,0,0-.115,1.421c-.019.743,0,1.487,0,2.23v.278H161.2v3.7h3.149v9.3h3.85V6434.7h3.139c.161-1.23.318-2.447.483-3.716h-.706c-.892,0-2.942,0-2.942,0s.009-1.833.031-2.629c.03-1.089.677-1.422,1.55-1.453" transform="translate(1025 -4718)" fill="#ffc20e" fill-rule="evenodd"/>
  </g>
</svg>
