<svg xmlns="http://www.w3.org/2000/svg" width="53.21" height="32.529" viewBox="0 0 53.21 32.529">
  <path id="ico-point" d="M458.378,956.347a11.842,11.842,0,0,0-3.21,9.341,4.508,4.508,0,0,1-2.656,2.28,12.59,12.59,0,0,1,.1,2.241,4.392,4.392,0,0,1-4.476,3.872q-8.682.012-17.363,0-4.46,0-8.919,0a4.46,4.46,0,0,1-4.657-4.642q-.006-8.629,0-17.257a1.52,1.52,0,0,1,1.683-1.753A3.878,3.878,0,0,0,422.2,948.5c.674-1.091,1.3-2.21,1.972-3.3a7.135,7.135,0,0,1,6.389-3.618c4.855-.03,9.711-.014,14.566-.006a4.467,4.467,0,0,1,4.444,5.64c-.016.066-.032.133-.064.271h.635c5.26,0,10.52-.009,15.78,0a4.429,4.429,0,1,1,.1,8.858c-2.339.025-4.679.006-7.019.007Zm-38.2-3.036c-.007.082-.021.168-.021.253q0,8,0,15.995a1.472,1.472,0,0,0,1.651,1.567q13.117,0,26.236,0a1.487,1.487,0,1,0,.01-2.954c-.915-.005-1.83.007-2.745-.005a1.415,1.415,0,0,1-1.4-.936,1.464,1.464,0,0,1,1.451-2.012c1.9-.013,3.8-.007,5.7,0a1.48,1.48,0,1,0,.039-2.953c-1.9-.013-3.8-.006-5.7,0a1.48,1.48,0,1,1-.028-2.953c2.868-.012,5.737,0,8.605-.006a1.484,1.484,0,1,0,.016-2.952c-1.707-.007-3.414,0-5.121,0-1.214,0-2.428.018-3.642-.01a1.443,1.443,0,0,1-1.427-1.465,1.468,1.468,0,0,1,1.422-1.475c.176-.011.352-.005.528-.005H465.5a5.552,5.552,0,0,0,.633-.014,1.472,1.472,0,0,0-.007-2.929,6.053,6.053,0,0,0-.633-.012H436.884a5.339,5.339,0,0,1-.58-.01,1.417,1.417,0,0,1-1.268-.962,1.466,1.466,0,0,1,1.5-1.981c2.851-.009,5.7,0,8.552,0a1.487,1.487,0,1,0,.024-2.954c-4.857,0-9.713-.012-14.57.005a4.288,4.288,0,0,0-3.851,2.185c-.667,1.1-1.315,2.2-1.969,3.308a6.688,6.688,0,0,1-3.233,2.838c-.419.176-.86.3-1.306.452" transform="translate(-417.199 -941.557)" fill="#ffc20e"/>
</svg>
