<svg xmlns="http://www.w3.org/2000/svg" width="21.108" height="21.98" viewBox="0 0 21.108 21.98">
  <g id="ico-alarm" transform="translate(-242.375 -411.349)">
    <path id="Path_79" data-name="Path 79" d="M619.755,896.329a9.379,9.379,0,1,1,9.378-9.38,9.39,9.39,0,0,1-9.378,9.38m0-17.759a8.379,8.379,0,1,0,8.378,8.379,8.388,8.388,0,0,0-8.378-8.379" transform="translate(-368 -463)" fill="#8e8e8e"/>
    <rect id="Rectangle_54" data-name="Rectangle 54" width="5.302" height="2" transform="translate(249.103 411.349)" fill="#8e8e8e"/>
    <rect id="Rectangle_55" data-name="Rectangle 55" width="2" height="3.992" transform="matrix(0.847, -0.532, 0.532, 0.847, 259.665, 416.617)" fill="#8e8e8e"/>
    <rect id="Rectangle_56" data-name="Rectangle 56" width="1" height="6.709" transform="translate(251.254 417.44)" fill="#8e8e8e"/>
    <path id="Path_80" data-name="Path 80" d="M621.566,886.95a1.812,1.812,0,1,1-1.812-1.812,1.812,1.812,0,0,1,1.812,1.812" transform="translate(-368 -463)" fill="#8e8e8e"/>
  </g>
</svg>
