<svg xmlns="http://www.w3.org/2000/svg" width="35" height="35" viewBox="0 0 35 35">
  <g id="ico-social-ins" transform="translate(-1207.89 -2150.897)">
    <path id="Path_62" data-name="Path 62" d="M243.89,6433.4a17.5,17.5,0,1,1-17.5-17.5,17.5,17.5,0,0,1,17.5,17.5" transform="translate(999 -4265)" fill="#494949"/>
    <path id="Path_64" data-name="Path 64" d="M235.692,6428.815a4.915,4.915,0,0,0-1.5-3.164,5.144,5.144,0,0,0-3.4-1.38,66.729,66.729,0,0,0-9.168.1,4.677,4.677,0,0,0-4.011,3.6c-.442,1.577-.354,8.847-.1,10.406a4.692,4.692,0,0,0,3.724,4.043,54.984,54.984,0,0,0,10.261.068,4.7,4.7,0,0,0,4.061-3.707c.424-1.619.276-8.508.127-9.969m-1.706,9.263a3.138,3.138,0,0,1-2.95,2.8c-1.495.164-8.174.254-9.56-.134a3.04,3.04,0,0,1-2.306-2.619,62.063,62.063,0,0,1,0-9.355,3.134,3.134,0,0,1,2.938-2.788,65.148,65.148,0,0,1,9.125.038,3.138,3.138,0,0,1,2.794,2.955,66.534,66.534,0,0,1-.038,9.1m-7.41-9.4a4.753,4.753,0,1,0,4.75,4.756,4.753,4.753,0,0,0-4.75-4.756m-.033,7.824a3.074,3.074,0,1,1,3.1-3.046,3.074,3.074,0,0,1-3.1,3.046m6.084-8a1.113,1.113,0,1,1-1.11-1.115,1.112,1.112,0,0,1,1.11,1.115" transform="translate(999 -4265)" fill="#ffc20e"/>
  </g>
</svg>
