<svg xmlns="http://www.w3.org/2000/svg" width="35" height="35" viewBox="0 0 35 35">
  <g id="ico-social-in" transform="translate(-267.78 -6415.897)">
    <path id="Path_65" data-name="Path 65" d="M302.78,6433.4a17.5,17.5,0,1,1-17.5-17.5,17.5,17.5,0,0,1,17.5,17.5" fill="#494949"/>
    <path id="Path_66" data-name="Path 66" d="M277.8,6429.735h3.552v11.41H277.8Zm1.776-5.67a2.057,2.057,0,1,1-2.059,2.055,2.056,2.056,0,0,1,2.059-2.055" fill="#ffc20e"/>
    <path id="Path_67" data-name="Path 67" d="M283.574,6429.735h3.4v1.561h.046a3.731,3.731,0,0,1,3.359-1.843c3.59,0,4.253,2.361,4.253,5.434v6.258H291.09V6435.6c0-1.324-.026-3.026-1.844-3.026-1.846,0-2.128,1.441-2.128,2.93v5.643h-3.544Z" fill="#ffc20e"/>
  </g>
</svg>
