<svg xmlns="http://www.w3.org/2000/svg" width="21.269" height="25" viewBox="0 0 21.269 25">
  <path id="ico-cart" d="M1764.175,62.734h4.757q.534,9.615,1.068,19.227h-21.269q.536-9.61,1.069-19.229h4.757c0-.043,0-.077,0-.111.006-.417,0-.834.021-1.25a4.344,4.344,0,0,1,.374-1.5,4.789,4.789,0,0,1,5.7-2.728,4.849,4.849,0,0,1,3.131,2.744,4.7,4.7,0,0,1,.389,1.9c0,.282,0,.564,0,.846Zm3.791,17.307q-.427-7.7-.854-15.378h-2.942v2.873h-1.921V64.664h-5.772v2.871h-1.925V64.664h-2.932q-.428,7.692-.854,15.377Zm-5.715-17.312c0-.3,0-.594,0-.885a2.907,2.907,0,0,0-2.793-2.952A2.891,2.891,0,0,0,1756.5,61.5c-.03.4-.014.8-.018,1.2a.068.068,0,0,0,.011.025Z" transform="translate(-1748.731 -56.961)" fill="#fff"/>
</svg>
