<?xml version="1.0" encoding="UTF-8"?><svg xmlns="http://www.w3.org/2000/svg" viewBox="0 0 300 39"><defs><style>.e{fill:#ffc20e;}.f{fill:#fff;}</style></defs><g id="a"/><g id="b"><g id="c"><g><polygon id="d" class="f" points="74.1 31.82 71.31 31.82 71.31 31.07 77.7 31.07 77.7 31.82 74.9 31.82 74.9 39 74.1 39 74.1 31.82"/><path class="f" d="M94.32,31.07v4.79c0,2.12-1.39,3.14-3.1,3.14s-3.14-1.02-3.14-3.14v-4.79h.79v4.79c0,1.49,1.02,2.41,2.36,2.41,1.19,0,2.31-.77,2.31-2.41v-4.79h.79Z"/><path class="f" d="M111.22,39h-1.03l-2.63-2.92h-2.05v2.92h-.79v-7.93h3.56c1.77,0,2.62,1.18,2.63,2.51,.01,1.24-.71,2.36-2.39,2.44l2.71,2.98Zm-5.71-7.19v3.51h2.72c1.27,0,1.88-.75,1.88-1.75s-.61-1.77-1.84-1.77h-2.77Z"/><polygon class="f" points="127.24 37.5 127.19 34.88 127.19 31.07 127.99 31.07 127.99 39 127.51 39 122.38 32.62 122.4 34.97 122.4 39 121.61 39 121.61 31.07 122.11 31.07 127.24 37.5"/><polygon class="f" points="143.79 31.12 139.93 34.88 144.13 38.94 144.13 39 143.15 39 139.17 35.16 139.17 39 138.38 39 138.38 31.07 139.17 31.07 139.17 34.64 142.85 31.07 143.79 31.07 143.79 31.12"/><polygon class="f" points="160.21 39 154.52 39 154.52 31.07 160.21 31.07 160.21 31.82 155.32 31.82 155.32 34.66 159.89 34.66 159.89 35.4 155.32 35.4 155.32 38.25 160.21 38.25 160.21 39"/><polygon class="f" points="220.68 39 214.99 39 214.99 31.07 220.68 31.07 220.68 31.82 215.78 31.82 215.78 34.66 220.36 34.66 220.36 35.4 215.78 35.4 215.78 38.25 220.68 38.25 220.68 39"/><polygon class="f" points="174.05 35.03 176.61 31.07 177.54 31.07 177.54 31.09 174.44 35.8 174.44 39 173.65 39 173.65 35.8 170.6 31.09 170.6 31.07 171.52 31.07 174.05 35.03"/><path class="f" d="M203.73,32.77c-.45-.72-1.4-.97-2.21-.98-.95,0-2.17,.27-2.17,1.41,0,.9,.99,1.14,2.19,1.35,1.52,.26,3.05,.6,3.05,2.24-.01,1.74-1.68,2.21-3.07,2.21-1.3,0-2.62-.47-3.21-1.7l.67-.36c.53,.99,1.6,1.33,2.54,1.33s2.3-.25,2.3-1.48c.01-1.04-1.15-1.31-2.35-1.52-1.45-.25-2.88-.57-2.88-2.07-.02-1.61,1.63-2.13,2.92-2.13,1.05,0,2.19,.29,2.87,1.34l-.65,.36Z"/><path class="f" d="M237.57,39h-1.03l-2.63-2.92h-2.05v2.92h-.79v-7.93h3.56c1.77,0,2.62,1.18,2.63,2.51,.01,1.24-.71,2.36-2.39,2.44l2.71,2.98Zm-5.71-7.19v3.51h2.72c1.27,0,1.88-.75,1.88-1.75s-.61-1.77-1.83-1.77h-2.77Z"/><polygon class="f" points="252.21 39 251.33 39 247.96 31.07 248.83 31.07 251.77 38.13 254.66 31.07 255.54 31.07 252.21 39"/><rect class="f" x="265.93" y="31.07" width=".79" height="7.93"/><path class="f" d="M283.92,37.83c-.78,.78-1.77,1.17-2.81,1.17-2.66,0-3.99-1.78-4-3.93-.01-2.1,1.33-4,4-4,1.02,0,2.06,.36,2.73,1.15l-.47,.47c-.63-.62-1.43-.92-2.26-.92-2.14,0-3.23,1.58-3.23,3.29,0,1.8,1.09,3.22,3.23,3.22,.83,0,1.7-.33,2.31-.95l.5,.49Z"/><polygon class="f" points="300 39 294.31 39 294.31 31.07 299.9 31.07 299.9 31.82 295.1 31.82 295.1 34.66 299.68 34.66 299.68 35.4 295.1 35.4 295.1 38.25 300 38.25 300 39"/><polygon class="f" points="0 4.73 12.87 4.73 12.87 39 18.03 39 18.03 0 0 0 0 4.73"/><path class="f" d="M48.24,9.27l.14,.22,3.92-2.44-.13-.22C48.65,.81,43.01,0,37.96,0h-.5V4.66h.6c4.6,.04,8.41,1.77,10.18,4.61"/><path class="f" d="M38.42,16.52c-5.17-.85-9.8-1.94-9.8-5.81,0-3.62,3.41-5.05,5.43-5.58l1.97-.52h-10.46l-.08,.1c-1.32,1.63-1.97,3.62-1.94,5.89,0,7.64,7.04,9.38,14.26,10.5,6.3,.96,10.48,2.43,10.44,6.49,0,6.12-7.79,6.6-10.18,6.6-4.98,0-9.55-2.49-11.64-6.35l-.13-.24-4.24,2.47,.1,.22c2.59,5.61,8.22,8.7,15.86,8.7s15.25-2.95,15.3-11.24c0-8.9-8.26-10.19-14.89-11.24"/><path class="f" d="M113.32,18.79h-3.51l-5.71-6.49h-3.97v6.49h-3V0c2.92,0,5.82,.03,8.74,.03,4.34,0,6.62,2.98,6.62,6.14,0,2.68-1.39,5.31-5.09,5.84l5.92,6.78ZM100.13,2.76v6.81h5.71c2.49,0,3.59-1.58,3.59-3.35s-1.1-3.46-3.57-3.46h-5.73Z"/><polygon class="f" points="125.19 2.71 119.01 2.71 119.01 0 134.37 0 134.37 2.71 128.22 2.71 128.22 18.79 125.19 18.79 125.19 2.71"/><rect class="f" x="151.45" width="2.98" height="18.79"/><polygon class="f" points="173.09 13.37 173.09 0 176.09 0 176.09 18.79 173.81 18.79 163.16 5.53 163.16 18.79 160.12 18.79 160.12 0 162.43 0 173.09 13.37"/><polygon class="f" points="187.96 2.71 181.79 2.71 181.79 0 197.14 0 197.14 2.71 190.99 2.71 190.99 18.79 187.96 18.79 187.96 2.71"/><polygon class="f" points="216.71 18.79 202.84 18.79 202.84 0 216.71 0 216.71 2.93 205.84 2.93 205.84 8 216.2 8 216.2 10.79 205.84 10.79 205.84 15.84 216.71 15.84 216.71 18.79"/><path class="f" d="M238.59,18.79h-3.51l-5.71-6.49h-3.97v6.49h-3V0c2.92,0,5.82,.03,8.74,.03,4.34,0,6.62,2.98,6.62,6.14,0,2.68-1.39,5.31-5.09,5.84l5.92,6.78Zm-13.19-16.03v6.81h5.71c2.49,0,3.59-1.58,3.59-3.35s-1.1-3.46-3.57-3.46h-5.73Z"/><path class="f" d="M300,18.79h-3.51l-5.71-6.49h-3.97v6.49h-3V0c2.92,0,5.82,.03,8.74,.03,4.34,0,6.62,2.98,6.62,6.14,0,2.68-1.39,5.31-5.09,5.84l5.92,6.78Zm-13.19-16.03v6.81h5.71c2.49,0,3.59-1.58,3.59-3.35s-1.1-3.46-3.57-3.46h-5.73Z"/><polygon class="f" points="83.01 0 79.73 0 71.31 18.79 74.5 18.79 77.44 12.1 77.4 12.1 81.37 3.17 85.34 12.1 85.3 12.1 88.24 18.79 91.44 18.79 83.01 0"/><rect class="e" x="245.01" y="7.96" width="2.86" height="10.83"/><rect class="e" x="246.44" y="7.96" width="14.04" height="2.87"/><path class="e" d="M278.12,9.39c0,5.19-4.21,9.39-9.39,9.39s-9.39-4.21-9.39-9.39S263.54,0,268.72,0s9.39,4.21,9.39,9.39"/><path class="e" d="M248.59,3.98c0,1.19-.96,2.15-2.15,2.15s-2.15-.96-2.15-2.15,.96-2.15,2.15-2.15,2.15,.96,2.15,2.15"/></g></g></g></svg>