<svg xmlns="http://www.w3.org/2000/svg" xmlns:xlink="http://www.w3.org/1999/xlink" width="215" height="142" viewBox="0 0 215 142">
  <defs>
    <clipPath id="clip-path">
      <rect x="80" y="-6" width="215" height="142" fill="none"/>
    </clipPath>
  </defs>
  <g id="step-2" transform="translate(-80 6)" clip-path="url(#clip-path)" style="isolation: isolate">
    <g id="step-2-2" data-name="step-2" transform="translate(-498.562 -905.631)">
      <path id="Path_67" data-name="Path 67" d="M498.562,1015.9H667.238a3.446,3.446,0,1,0,0-6.892h-30a4.083,4.083,0,0,1-4.082-4.082V910.713a4.083,4.083,0,0,1,4.082-4.082h58.7a4.082,4.082,0,0,1,4.082,4.082v68.158a4.081,4.081,0,0,1-4.082,4.082H664.9a4.082,4.082,0,0,1-4.082-4.082v-39.68a4.083,4.083,0,0,1,4.082-4.083h64.119a4.083,4.083,0,0,1,4.082,4.083v59.091a4.082,4.082,0,0,1-4.082,4.082h-36.63a6.768,6.768,0,1,0,0,13.536H825.758" transform="translate(0 -1)" fill="none" stroke="#ffc20e" stroke-linejoin="round" stroke-width="2"/>
      <path id="Path_68" data-name="Path 68" d="M718.13,948.258a6.224,6.224,0,1,1-6.225-6.224A6.225,6.225,0,0,1,718.13,948.258Z" fill="none" stroke="#ffc20e" stroke-linejoin="round" stroke-width="2"/>
      <path id="Path_69" data-name="Path 69" d="M648.161,918.945a3.837,3.837,0,1,1-3.837-3.837A3.837,3.837,0,0,1,648.161,918.945Z" fill="none" stroke="#ffc20e" stroke-linejoin="round" stroke-width="2"/>
      <line id="Line_7" data-name="Line 7" x1="30.893" transform="translate(665.892 950.014)" fill="none" stroke="#ffc20e" stroke-linejoin="round" stroke-width="2"/>
      <rect id="Rectangle_31" data-name="Rectangle 31" width="38.36" height="5.788" transform="translate(652.936 916.051)" fill="none" stroke="#ffc20e" stroke-linejoin="round" stroke-width="2"/>
      <path id="Path_76" data-name="Path 76" d="M709.429,986.812l-2.323,23.707L727,1002.9Z" fill="none" stroke="#ffc20e" stroke-linejoin="round" stroke-width="2"/>
      <rect id="Rectangle_33" data-name="Rectangle 33" width="6.73" height="10.826" transform="translate(713.911 1007.91) rotate(-20.967)" fill="none" stroke="#ffc20e" stroke-linejoin="round" stroke-width="2"/>
    </g>
  </g>
</svg>
