<svg xmlns="http://www.w3.org/2000/svg" xmlns:xlink="http://www.w3.org/1999/xlink" width="215" height="142" viewBox="0 0 215 142">
  <defs>
    <clipPath id="clip-path">
      <rect x="5" y="-6" width="215" height="142" fill="none"/>
    </clipPath>
  </defs>
  <g id="step-1" transform="translate(-5 6)" clip-path="url(#clip-path)" style="isolation: isolate">
    <g id="step-1-2" data-name="step-1" transform="translate(-275.915 -906.632)">
      <path id="Path_66" data-name="Path 66" d="M275.915,1015.9h50.753a11.19,11.19,0,0,0,11.191-11.19V954.418A8.418,8.418,0,0,1,346.275,946h60.338a3.995,3.995,0,0,1,0,7.99h-30.1a7.561,7.561,0,0,1-7.56-7.56V915.047a8.416,8.416,0,0,1,8.416-8.415h57.913a8.415,8.415,0,0,1,8.416,8.415V961.9a2.487,2.487,0,0,1-4.331,1.67c-3.632-4.009-9.162-8.728-15.068-8.728-10.27,0-13.408,10.556-13.408,18.259v7.988a7.989,7.989,0,0,1-7.989,7.988H358.478c-10.606,0-25.76,11.115-26.9,17.888-1.218,7.256,6.163,9.025,13.876,8.928H500.436" fill="none" stroke="#ffc20e" stroke-linejoin="round" stroke-width="2"/>
      <line id="Line_3" data-name="Line 3" x2="43.646" transform="translate(353.053 964.582)" fill="none" stroke="#ffc20e" stroke-linejoin="round" stroke-width="2"/>
      <line id="Line_4" data-name="Line 4" x2="43.646" transform="translate(353.053 976.296)" fill="none" stroke="#ffc20e" stroke-linejoin="round" stroke-width="2"/>
      <line id="Line_5" data-name="Line 5" x2="46.229" transform="translate(383.844 921.185)" fill="none" stroke="#ffc20e" stroke-linejoin="round" stroke-width="2"/>
      <line id="Line_6" data-name="Line 6" x2="46.229" transform="translate(383.844 932.899)" fill="none" stroke="#ffc20e" stroke-linejoin="round" stroke-width="2"/>
    </g>
  </g>
</svg>
