<svg id="Layer_1" data-name="Layer 1" xmlns="http://www.w3.org/2000/svg" viewBox="0 0 1073.51 804.4"><defs><style>.cls-1{fill:#f1f2f2;}</style></defs><polygon class="cls-1" points="280.25 260.06 404.06 260.06 404.06 589.83 453.7 589.83 453.7 214.57 280.25 214.57 280.25 260.06"/><path class="cls-1" d="M744.39,303.77l1.34,2.15,37.78-23.46-1.26-2.14c-33.88-57.93-88.14-65.75-136.75-65.75l-4.83.08V259.4l5.81-.13c44.3.56,80.9,17.2,97.91,44.5"/><path class="cls-1" d="M650,373.54c-49.71-8.21-94.33-18.66-94.33-55.88,0-34.83,32.77-48.56,52.3-53.65l19-5H526.28l-.76.95c-12.67,15.71-18.94,34.8-18.65,56.68,0,73.52,67.79,90.22,137.23,101,60.59,9.24,100.86,23.39,100.41,62.48,0,58.89-75,63.47-98,63.47-47.91,0-91.88-24-112-61.13l-1.25-2.3L492.42,504l1,2.1c24.92,54,79.12,83.74,152.61,83.74,70.85,0,146.75-28.41,147.25-108.16,0-85.61-79.45-98.1-143.3-108.13"/></svg>